<svg version="1.0" xmlns="http://www.w3.org/2000/svg" width="4352" height="4352" viewBox="0 0 3264 3264"><g fill="currentColor"><path d="M1363 643.3c-1.3.7-3.1 2.4-3.8 3.7-1.1 2.1-1.2 148.5-.7 844.5.4 463.1.8 853 1 866.5.3 18.7.7 25.7 1.9 29.5.9 2.7 2.1 9.7 2.6 15.5 1.3 12 2.5 18.1 4.4 21.9.7 1.4 2.1 6.2 3.1 10.6.9 4.4 2.5 9.3 3.5 11 1 1.6 2.4 5.2 3.1 8 1.2 5 13 28.8 17.5 35.5 1.3 1.9 2.4 4 2.4 4.6 0 .6 1.6 3.1 3.5 5.5s3.5 4.7 3.5 5.2c0 .4 2.8 4.4 6.3 9 3.4 4.5 6.9 9.3 7.9 10.7 1.9 3 23.8 25.1 29.4 29.7 2.1 1.8 6.5 5.5 9.7 8.1 3.1 2.7 7.6 6.2 10 7.8 2.3 1.6 5.7 4.1 7.5 5.6 1.8 1.5 3.9 2.8 4.7 2.8.7 0 2.6 1.1 4.2 2.4 2.7 2.3 5 3.6 18.6 10.5 3.2 1.6 6.6 3.6 7.5 4.4.9.8 3.3 1.8 5.2 2.2 1.9.4 5.8 2 8.5 3.5 2.8 1.5 7 3 9.4 3.4 2.4.4 6.2 1.5 8.4 2.6s6.8 2.5 10.1 3.1c3.4.6 9.7 2.2 14.1 3.5 4.4 1.3 12.7 2.8 18.4 3.4 6.6.6 65.4 1 166 1h155.8l2-2.3 2.1-2.2.5-744.5c.4-409.5.6-800 .7-867.8V878.9l-2.5-13.2c-1.4-7.3-3-15.9-3.6-19.2-.6-3.3-1.9-8.7-3-12-1.1-3.3-2.4-8-3-10.4-.5-2.4-2-6.7-3.4-9.6-1.3-2.9-2.8-7-3.4-9.1-.6-2.2-1.9-5.3-2.9-6.9-1.1-1.7-2.5-4.8-3.2-7-.7-2.2-2-4.9-3-6-.9-1.1-2.9-4.5-4.4-7.5-4.5-9.2-7-13.5-9.4-16.6-1.3-1.6-3.9-5.4-5.9-8.4-1.9-3-5.1-7.1-6.9-9-1.9-2-3.4-4-3.4-4.5 0-.6-2.9-4.1-6.5-7.9-3.6-3.8-6.5-7.2-6.5-7.5 0-.3-1.4-1.4-3-2.3-1.7-.9-3-2.3-3-3 0-.7-1.9-2.9-4.3-5-7.8-6.7-18.2-15.3-22.1-18.3-2.2-1.7-6.1-4.7-8.8-6.7-2.6-2.1-6.5-4.5-8.5-5.3-2.1-.9-4.8-2.6-6.1-3.8-2.4-2.2-7.6-5.3-15.1-8.7-2.4-1.1-5.7-3-7.3-4.1-1.6-1.2-5.1-2.7-7.8-3.4-2.7-.7-6.1-2.2-7.5-3.3-1.5-1.2-5.2-2.6-8.3-3.2-3.1-.6-8.2-2.2-11.2-3.5-3-1.3-7.3-2.6-9.5-3-2.2-.4-7.6-1.8-12-3.1-15.7-4.6-17.9-4.7-184-5.1-125.9-.2-157.5-.1-159.5 1zM898 645.1c-21.1.6-29.9 1.5-37.4 3.8-1.7.5-6.2 1.5-10 2.2-3.8.6-9.2 2-12 3.1-2.8 1.1-7.6 2.6-10.6 3.4-3 .8-7.3 2.5-9.5 3.8-2.2 1.3-5.6 2.6-7.6 3-1.9.3-5.6 1.9-8.1 3.5s-5.6 3.2-6.9 3.6c-1.3.4-3.1 1.3-3.9 2-.8.7-3.8 2.4-6.7 3.9-2.8 1.4-5.4 3-5.8 3.6-.4.6-2.8 2.1-5.5 3.5-2.6 1.3-5 2.8-5.2 3.2-.1.4-2.1 2.1-4.3 3.6-18.8 13-32.9 26.4-47 44.6-2.2 2.9-5.2 6.6-6.6 8.4-1.4 1.8-3.2 4.3-3.9 5.7-.7 1.4-2.2 3.6-3.2 5-7 9.2-20 34.3-23.3 45-.9 3-2.3 6.5-3.1 7.8-.9 1.3-2.2 5.1-2.9 8.5-.8 3.4-2.3 9.2-3.4 12.9-1.1 3.7-2.5 11.1-3.1 16.5-.7 5.4-1.8 12.3-2.6 15.3-1.1 4.6-1.4 39.2-1.4 202.5l-.1 196.9 2.3 1.8c2.2 1.7 10.5 1.8 164.3 1.8 93.1 0 164.6-.4 168-1 3.3-.5 10.1-1.8 15-2.8 5-1.1 11.4-2.3 14.3-2.7 3-.4 8-1.8 11.3-3.1 3.3-1.3 8.3-2.9 11.2-3.5 2.8-.7 6.4-2 7.9-3 1.4-1.1 3.5-1.9 4.5-1.9 1.1 0 5.6-1.8 10.1-4 4.4-2.2 8.4-4 8.9-4s3.2-1.5 6.1-3.3c2.8-1.7 7-4.3 9.4-5.7 8.9-5.3 17.4-11.3 19.1-13.6 1-1.3 2.5-2.4 3.3-2.4 3.7 0 36.5-31.8 43.4-42 1.6-2.5 4.5-6.5 6.5-9 1.9-2.5 4.6-6.5 5.9-9 1.3-2.5 3.3-5.4 4.5-6.4 1.2-1.1 2.1-2.4 2.1-3 0-.6 1.4-2.9 3-5 1.7-2.2 3-4.5 3-5.1 0-.7 1.3-3.6 2.9-6.6 1.5-3 3.4-7.2 4.1-9.4.7-2.2 2.3-6 3.5-8.5 1.3-2.5 2.8-7.2 3.5-10.5.7-3.3 2.2-7.4 3.2-9.2 1-1.8 2.8-8.6 3.9-15.4 1.1-6.8 2.2-12.6 2.4-13 .3-.4 1.2-5.5 2-11.5 1.3-9.3 1.5-37 1.5-205.9 0-192.4 0-195.2-2-197-1.8-1.6-9.8-1.7-147.2-1.9-79.9 0-155.4.2-167.8.5zM2060.7 644.8c-1.5.2-3.4 1.3-4.2 2.6-1.3 2-1.5 76.8-1.2 616l.2 613.8 2.4 1.9c2.4 1.9 5.2 2 164.5 1.7 145.1-.3 162.6-.5 167.1-1.9 2.8-.9 8.6-2.2 13-2.9 4.4-.6 10.9-2.2 14.5-3.5 3.6-1.2 8.7-2.8 11.3-3.4 2.7-.6 6.5-2.2 8.5-3.5 2-1.3 5.3-2.7 7.3-3 2.1-.4 4.8-1.5 6.2-2.6 1.4-1.1 4.5-2.8 7-3.9s4.8-2.4 5.1-3c.4-.5 3-2.1 5.9-3.5 5.2-2.6 9.4-5.3 15.2-9.8 1.6-1.3 3.9-2.8 5-3.4 1.8-.9 7.4-5.2 15.1-11.7 8-6.6 35.8-36.8 38.3-41.6.7-1.3 2.8-4.4 4.7-7 1.9-2.5 4.7-6.4 6.4-8.7 1.6-2.3 3-4.5 3-4.9 0-.4 1.1-2.2 2.4-3.9 1.3-1.7 4.5-7.2 7.1-12.1 2.6-5 5.7-10.8 7-13 1.3-2.2 2.8-5.8 3.5-8 .7-2.2 2.1-5 3-6.3 1-1.2 2.4-4.6 3-7.5.7-2.8 1.9-6.3 2.8-7.7.8-1.3 2.8-6.5 4.3-11.5 1.5-4.9 3.4-11 4.2-13.5.9-2.5 2-7 2.6-10 .6-3 2-8.9 3.1-13s2.5-12 3-17.5c.8-9.4 1.5-13.4 4.3-26.5.9-4.2 1.2-88 1.2-349 0-325.5-.1-344.1-1.8-354.4-1-6-2-11.2-2.2-11.6-.2-.4-.9-5.7-1.5-11.9s-2.1-14.6-3.5-19c-1.4-4.3-2.8-10-3.1-12.7-.3-2.7-1.9-7.6-3.5-11-1.6-3.3-3.2-8.3-3.5-11-.4-2.7-1.6-6.7-2.9-8.9-1.2-2.2-2.7-6.3-3.4-9-.7-2.8-2.2-6.6-3.4-8.5-1.2-1.9-2.9-5.3-3.6-7.5-.8-2.2-2.2-5.2-3.3-6.7-1-1.5-2.4-4.2-3-6-.6-1.8-2.4-5.1-3.9-7.2-1.6-2.2-2.9-4.5-2.9-5.2 0-.6-1.3-2.8-3-4.9-1.6-2.1-3-4.3-3-5 0-.6-1.5-2.9-3.4-5.1-1.8-2.1-3.6-4.9-4-6.2-.4-1.2-3.6-5.7-7.2-9.8-3.5-4.2-6.4-8-6.4-8.4 0-1-26.3-27.5-32.6-32.9-2.1-1.8-4.9-4.2-6.2-5.4-5.3-4.7-21.7-16.7-22.8-16.7-.7 0-2.6-1.1-4.2-2.5-1.7-1.4-4.7-3.2-6.9-4.1-2.1-.9-4.9-2.4-6.3-3.4-1.4-1-4.5-2.5-7-3.3-2.5-.9-7.2-2.9-10.5-4.6-3.3-1.7-6.8-3.1-7.8-3.1s-4-1.1-6.7-2.5-6-2.5-7.4-2.5c-1.3 0-6.2-1.1-11-2.5-4.7-1.4-11.6-2.9-15.3-3.5-6.2-1-321.7-2.1-329.6-1.2zM920.9 1383.4c-.6.6-21 3.7-31 4.7-4.8.4-11.3 1.7-14.5 2.8-3.3 1.1-9.3 2.7-13.4 3.6-4.1.9-8.5 2.3-9.8 3.1-1.3.8-5.7 2.4-9.9 3.5-4.2 1-8.4 2.5-9.2 3.3-.9.7-3.8 2.1-6.6 3.1-2.7 1-5.7 2.4-6.5 3.1-.8.7-3.9 2.2-6.9 3.4-3 1.1-6.5 3-7.9 4-1.4 1.1-3 2-3.7 2-1.3 0-21.7 13.6-30 20-3.1 2.5-6.9 5.3-8.3 6.2-1.4.9-6.3 5.1-11 9.4-13.4 12.3-45.2 50.9-45.2 54.9 0 .7-1 2-2.1 3.1-1.2 1-3.2 4.2-4.4 7-1.3 2.8-2.7 5.4-3.3 5.8-.6.3-1.6 2.3-2.3 4.4-.6 2-2.1 5-3.4 6.7-1.2 1.6-2.8 4.8-3.5 7-.7 2.2-2.3 5.8-3.5 8-1.3 2.2-2.8 6.4-3.4 9.4-.6 3-2.1 6.9-3.2 8.7-1.1 1.8-2.6 6.5-3.4 10.6-.8 4-2.3 9.5-3.4 12.3-1 2.7-2.4 10.2-3.1 16.5-.6 6.3-1.8 14.2-2.6 17.5-1.2 5.1-1.4 62.5-1.4 373 0 357 .1 367.3 1.9 379 1.1 6.6 2.3 15.1 2.6 19 .4 3.8 1.6 9.2 2.7 11.9 1 2.7 2.5 8.3 3.3 12.4.8 4.1 2.1 8.4 2.8 9.6 1.8 2.8 4.7 11.4 4.7 14 0 1.2 1.4 4.1 3 6.5 1.7 2.4 3 5.4 3 6.6 0 1.2 1.2 4 2.6 6.1 1.5 2.1 3.3 5.6 4 7.7.8 2.1 2.5 5.2 3.9 6.9 1.4 1.6 2.5 3.5 2.5 4.1 0 1.8 11.5 18.7 21.5 31.7 10.4 13.5 35 38 48.7 48.6 5.3 4 10.1 7.4 10.6 7.4.6 0 2.9 1.5 5.1 3.4 2.3 1.9 5.1 3.8 6.4 4.2 1.2.3 3.1 1.4 4.2 2.4s4 2.6 6.5 3.6c2.5.9 5.2 2.3 6 2.9 3 2.5 16.6 9.2 20 10 1.9.4 5.5 1.8 8 3.2 2.5 1.4 7 3.1 10 3.8 3 .7 8.7 2.5 12.5 3.9 3.9 1.4 8.4 2.6 10.1 2.6 1.7 0 6.6 1.1 11 2.5 4.3 1.3 12.6 2.9 18.3 3.5 6.6.6 64.3 1 161.1 1 144.7 0 150.8-.1 152.3-1.8 1.6-1.7 1.7-45.8 1.7-614.5 0-430-.3-613.4-1.1-615.4-.5-1.5-1.6-3.1-2.2-3.5-1.2-.8-290-1.2-290.8-.4zM2057.4 2002.1c-1.8 2.1-1.9 6.4-2.2 162.8-.3 158.5.6 237.4 2.8 246 .6 2.4 1.9 9.4 3 15.6 1 6.3 2.6 12.8 3.6 14.7.9 1.8 2.5 6.9 3.5 11.3.9 4.4 2.9 10.2 4.3 12.9 1.4 2.7 2.6 5.4 2.6 6 0 .6 2.3 5.6 5.1 11.1 7.5 14.6 9.5 18.3 14 25 2.2 3.3 4.7 7.3 5.7 8.9 4.6 7.9 31.1 36.5 41.8 45.3 13.6 11.3 12.8 10.6 24.4 18.8 1.9 1.4 5.9 3.6 8.7 5.1 2.9 1.4 5.6 3 5.9 3.6.4.6 3 2.1 5.9 3.4 2.9 1.2 5.6 2.8 6 3.3.3.6 2.5 1.5 4.8 2.2 2.3.6 6.7 2.3 9.7 3.9 3.1 1.5 7.1 3.1 9 3.5 1.9.4 5.8 1.8 8.6 3.1s8 2.8 11.5 3.3c3.6.6 9.1 2 12.3 3.1 3.1 1 10.3 2.4 15.8 3 6.4.6 68.9 1 174.9 1 164.9 0 164.9 0 166.9-2l2.1-2.1-.4-197.2c-.4-173.6-.6-198-2-204.2-1.7-7.7-3-14.5-4.7-24.5-.7-3.6-1.5-7-1.9-7.5-1.3-1.7-3.2-7.7-4.1-13.3-.5-2.9-1.8-6.5-2.9-8.1-1.1-1.6-2.7-5.5-3.6-8.6-.8-3.2-2.1-6.5-2.9-7.4-.8-.9-2.3-3.9-3.4-6.7-1.1-2.8-3.1-6.7-4.4-8.6-3.5-5.4-6.1-9.7-8.3-13.9-2.7-5.1-12.1-18.1-16.7-23.4-2.1-2.3-3.8-4.6-3.8-5.1 0-1.2-24.3-25.2-29.4-29-6.5-4.9-10.2-7.7-16.4-12.6-3.3-2.5-7-5.2-8.3-5.8-1.3-.7-3.3-2.1-4.4-3.1-1.1-.9-4.5-2.7-7.6-3.8-3.1-1.2-6.4-3-7.4-4.1-1-1.1-2.2-2-2.7-2-.6 0-4.2-1.6-8.1-3.5-3.9-1.9-7.8-3.5-8.6-3.5-.9 0-3.2-1-5.1-2.1-4-2.5-11.4-4.9-15-4.9-1.4 0-4.8-1.1-7.5-2.4-2.8-1.2-8.8-2.8-13.5-3.5-4.7-.6-14.6-2.3-22-3.7l-13.5-2.4h-320.2l-1.9 2.1z"/></g></svg>