<?xml version="1.0" standalone="no"?>
<!DOCTYPE svg PUBLIC "-//W3C//DTD SVG 20010904//EN"
 "http://www.w3.org/TR/2001/REC-SVG-20010904/DTD/svg10.dtd">
<svg version="1.0" xmlns="http://www.w3.org/2000/svg"
 width="128.000000pt" height="128.000000pt" viewBox="0 0 128.000000 128.000000"
 preserveAspectRatio="xMidYMid meet">

<g transform="translate(0.000000,128.000000) scale(0.100000,-0.100000)"
fill="#05B2DC" stroke="none">
<path d="M0 650 l0 -500 635 0 635 0 0 500 0 500 -635 0 -635 0 0 -500z m125
441 c0 -34 -30 -51 -51 -29 -25 24 -10 60 24 56 21 -2 27 -8 27 -27z m93 -3
c2 -19 -2 -28 -18 -33 -37 -12 -64 27 -38 53 21 21 53 10 56 -20z m87 -3 c0
-25 -4 -30 -24 -30 -32 0 -49 28 -31 50 7 9 23 15 34 13 16 -2 21 -10 21 -33z
m935 -480 l0 -415 -600 0 -600 0 0 415 0 415 600 0 600 0 0 -415z"/>
<path d="M617 605 c-48 -108 -87 -199 -87 -204 0 -13 32 -23 41 -14 4 4 46 95
93 202 86 193 90 210 50 211 -6 0 -50 -88 -97 -195z"/>
<path d="M318 697 c-66 -40 -117 -79 -117 -87 0 -9 49 -44 115 -83 108 -63
117 -66 129 -50 7 10 11 21 9 25 -3 4 -43 29 -89 55 -47 26 -85 51 -85 54 0 4
40 31 89 61 82 50 88 55 77 75 -11 21 -14 19 -128 -50z"/>
<path d="M829 749 c-6 -12 -8 -23 -6 -26 3 -3 45 -29 93 -58 l86 -53 -91 -53
c-90 -53 -103 -67 -78 -87 9 -8 43 8 130 59 64 38 117 74 117 78 0 5 -54 43
-120 85 -114 72 -120 74 -131 55z"/>
</g>
</svg>
